<mxfile host="app.diagrams.net" modified="2023-09-09T15:20:37.910Z" agent="Mozilla/5.0 (Windows NT 10.0; Win64; x64) AppleWebKit/537.36 (KHTML, like Gecko) Chrome/116.0.0.0 Safari/537.36" etag="8pGJjGmf_7_iAHLEcTPH" version="21.7.2" type="device">
  <diagram name="Page-1" id="LefBdM6WiPvveyOigxfl">
    <mxGraphModel dx="3130" dy="4372" grid="1" gridSize="10" guides="1" tooltips="1" connect="1" arrows="1" fold="1" page="1" pageScale="1" pageWidth="850" pageHeight="1100" math="0" shadow="0">
      <root>
        <mxCell id="0" />
        <mxCell id="1" parent="0" />
        <mxCell id="H-Z6jA3pW8PZsGEh_Skr-38" style="edgeStyle=orthogonalEdgeStyle;rounded=0;orthogonalLoop=1;jettySize=auto;html=1;entryX=0.42;entryY=0;entryDx=0;entryDy=0;entryPerimeter=0;" parent="1" source="2NwLGLV-bCFOCfCnMblr-1" target="2NwLGLV-bCFOCfCnMblr-2" edge="1">
          <mxGeometry relative="1" as="geometry">
            <Array as="points" />
          </mxGeometry>
        </mxCell>
        <mxCell id="H-Z6jA3pW8PZsGEh_Skr-39" value="write in mem" style="edgeLabel;html=1;align=center;verticalAlign=middle;resizable=0;points=[];rotation=-90;" parent="H-Z6jA3pW8PZsGEh_Skr-38" vertex="1" connectable="0">
          <mxGeometry x="-0.1186" y="-4" relative="1" as="geometry">
            <mxPoint x="-8" y="-1" as="offset" />
          </mxGeometry>
        </mxCell>
        <mxCell id="H-Z6jA3pW8PZsGEh_Skr-40" style="edgeStyle=orthogonalEdgeStyle;rounded=0;orthogonalLoop=1;jettySize=auto;html=1;exitX=1;exitY=0.75;exitDx=0;exitDy=0;entryX=0.5;entryY=0;entryDx=0;entryDy=0;" parent="1" source="2NwLGLV-bCFOCfCnMblr-1" target="2NwLGLV-bCFOCfCnMblr-3" edge="1">
          <mxGeometry relative="1" as="geometry">
            <Array as="points">
              <mxPoint x="648" y="282" />
            </Array>
          </mxGeometry>
        </mxCell>
        <mxCell id="H-Z6jA3pW8PZsGEh_Skr-42" value="write in cache" style="edgeLabel;html=1;align=center;verticalAlign=middle;resizable=0;points=[];" parent="H-Z6jA3pW8PZsGEh_Skr-40" vertex="1" connectable="0">
          <mxGeometry x="-0.5081" y="-2" relative="1" as="geometry">
            <mxPoint y="6" as="offset" />
          </mxGeometry>
        </mxCell>
        <mxCell id="H-Z6jA3pW8PZsGEh_Skr-44" style="edgeStyle=orthogonalEdgeStyle;rounded=0;orthogonalLoop=1;jettySize=auto;html=1;exitX=0.75;exitY=1;exitDx=0;exitDy=0;" parent="1" source="2NwLGLV-bCFOCfCnMblr-1" target="2NwLGLV-bCFOCfCnMblr-2" edge="1">
          <mxGeometry relative="1" as="geometry">
            <Array as="points">
              <mxPoint x="244" y="720" />
              <mxPoint x="244" y="720" />
            </Array>
          </mxGeometry>
        </mxCell>
        <mxCell id="H-Z6jA3pW8PZsGEh_Skr-45" value="move from mem" style="edgeLabel;html=1;align=center;verticalAlign=middle;resizable=0;points=[];rotation=-90;" parent="H-Z6jA3pW8PZsGEh_Skr-44" vertex="1" connectable="0">
          <mxGeometry x="-0.2485" y="1" relative="1" as="geometry">
            <mxPoint x="15" y="35" as="offset" />
          </mxGeometry>
        </mxCell>
        <mxCell id="H-Z6jA3pW8PZsGEh_Skr-47" style="edgeStyle=orthogonalEdgeStyle;rounded=0;orthogonalLoop=1;jettySize=auto;html=1;exitX=1;exitY=0.91;exitDx=0;exitDy=0;exitPerimeter=0;entryX=0.25;entryY=0;entryDx=0;entryDy=0;" parent="1" source="2NwLGLV-bCFOCfCnMblr-1" target="2NwLGLV-bCFOCfCnMblr-3" edge="1">
          <mxGeometry relative="1" as="geometry" />
        </mxCell>
        <mxCell id="H-Z6jA3pW8PZsGEh_Skr-48" value="move to cache" style="edgeLabel;html=1;align=center;verticalAlign=middle;resizable=0;points=[];" parent="H-Z6jA3pW8PZsGEh_Skr-47" vertex="1" connectable="0">
          <mxGeometry x="-0.2841" y="6" relative="1" as="geometry">
            <mxPoint x="-53" y="18" as="offset" />
          </mxGeometry>
        </mxCell>
        <mxCell id="H-Z6jA3pW8PZsGEh_Skr-51" style="edgeStyle=orthogonalEdgeStyle;rounded=0;orthogonalLoop=1;jettySize=auto;html=1;exitX=1;exitY=0.09;exitDx=0;exitDy=0;exitPerimeter=0;entryX=0;entryY=0.5;entryDx=0;entryDy=0;" parent="1" source="2NwLGLV-bCFOCfCnMblr-1" target="2NwLGLV-bCFOCfCnMblr-12" edge="1">
          <mxGeometry relative="1" as="geometry">
            <Array as="points">
              <mxPoint x="800" y="183" />
              <mxPoint x="800" y="504" />
            </Array>
          </mxGeometry>
        </mxCell>
        <mxCell id="H-Z6jA3pW8PZsGEh_Skr-52" style="edgeStyle=orthogonalEdgeStyle;rounded=0;orthogonalLoop=1;jettySize=auto;html=1;exitX=1;exitY=0.27;exitDx=0;exitDy=0;exitPerimeter=0;entryX=0.92;entryY=0;entryDx=0;entryDy=0;entryPerimeter=0;" parent="1" source="2NwLGLV-bCFOCfCnMblr-1" target="2NwLGLV-bCFOCfCnMblr-3" edge="1">
          <mxGeometry relative="1" as="geometry" />
        </mxCell>
        <mxCell id="H-Z6jA3pW8PZsGEh_Skr-53" value="read from cache" style="edgeLabel;html=1;align=center;verticalAlign=middle;resizable=0;points=[];" parent="H-Z6jA3pW8PZsGEh_Skr-52" vertex="1" connectable="0">
          <mxGeometry x="0.4334" y="-2" relative="1" as="geometry">
            <mxPoint x="-267" y="-141" as="offset" />
          </mxGeometry>
        </mxCell>
        <mxCell id="2NwLGLV-bCFOCfCnMblr-1" value="&lt;font style=&quot;font-size: 18px;&quot;&gt;Cache Conttroller&lt;/font&gt;" style="rounded=0;whiteSpace=wrap;html=1;points=[[0,0,0,0,0],[0,0.25,0,0,0],[0,0.5,0,0,0],[0,0.75,0,0,0],[0,1,0,0,0],[0.25,0,0,0,0],[0.25,1,0,0,0],[0.5,0,0,0,0],[0.5,1,0,0,0],[0.75,0,0,0,0],[0.75,1,0,0,0],[1,0,0,0,0],[1,0.09,0,0,0],[1,0.18,0,0,0],[1,0.25,0,0,0],[1,0.27,0,0,0],[1,0.36,0,0,0],[1,0.45,0,0,0],[1,0.5,0,0,0],[1,0.55,0,0,0],[1,0.64,0,0,0],[1,0.73,0,0,0],[1,0.75,0,0,0],[1,0.82,0,0,0],[1,0.91,0,0,0],[1,1,0,0,0]];" parent="1" vertex="1">
          <mxGeometry x="105" y="170" width="185" height="150" as="geometry" />
        </mxCell>
        <mxCell id="H-Z6jA3pW8PZsGEh_Skr-56" style="edgeStyle=orthogonalEdgeStyle;rounded=0;orthogonalLoop=1;jettySize=auto;html=1;exitX=1;exitY=0.5;exitDx=0;exitDy=0;exitPerimeter=0;entryX=0.5;entryY=1;entryDx=0;entryDy=0;entryPerimeter=0;" parent="1" source="2NwLGLV-bCFOCfCnMblr-2" target="2NwLGLV-bCFOCfCnMblr-3" edge="1">
          <mxGeometry relative="1" as="geometry" />
        </mxCell>
        <mxCell id="H-Z6jA3pW8PZsGEh_Skr-57" value="data" style="edgeLabel;html=1;align=center;verticalAlign=middle;resizable=0;points=[];" parent="H-Z6jA3pW8PZsGEh_Skr-56" vertex="1" connectable="0">
          <mxGeometry x="-0.5966" y="2" relative="1" as="geometry">
            <mxPoint x="-1" y="-8" as="offset" />
          </mxGeometry>
        </mxCell>
        <mxCell id="H-Z6jA3pW8PZsGEh_Skr-76" value="word" style="edgeLabel;html=1;align=center;verticalAlign=middle;resizable=0;points=[];" parent="H-Z6jA3pW8PZsGEh_Skr-56" vertex="1" connectable="0">
          <mxGeometry x="-0.2828" y="-3" relative="1" as="geometry">
            <mxPoint y="5" as="offset" />
          </mxGeometry>
        </mxCell>
        <mxCell id="2NwLGLV-bCFOCfCnMblr-2" value="&lt;font style=&quot;font-size: 18px;&quot;&gt;DATA Memory&lt;/font&gt;" style="rounded=0;whiteSpace=wrap;html=1;points=[[0,0,0,0,0],[0,0.06,0,0,0],[0,0.13,0,0,0],[0,0.19,0,0,0],[0,0.25,0,0,0],[0,0.31,0,0,0],[0,0.38,0,0,0],[0,0.44,0,0,0],[0,0.5,0,0,0],[0,0.56,0,0,0],[0,0.63,0,0,0],[0,0.69,0,0,0],[0,0.75,0,0,0],[0,0.81,0,0,0],[0,0.88,0,0,0],[0,0.94,0,0,0],[0,1,0,0,0],[0.09,0,0,0,0],[0.18,0,0,0,0],[0.25,0,0,0,0],[0.25,1,0,0,0],[0.27,0,0,0,0],[0.36,0,0,0,0],[0.45,0,0,0,0],[0.5,0,0,0,0],[0.5,1,0,0,0],[0.55,0,0,0,0],[0.64,0,0,0,0],[0.73,0,0,0,0],[0.75,0,0,0,0],[0.75,1,0,0,0],[0.82,0,0,0,0],[0.91,0,0,0,0],[1,0,0,0,0],[1,0.25,0,0,0],[1,0.5,0,0,0],[1,0.75,0,0,0],[1,1,0,0,0]];" parent="1" vertex="1">
          <mxGeometry x="80" y="850" width="280" height="106" as="geometry" />
        </mxCell>
        <mxCell id="2NwLGLV-bCFOCfCnMblr-33" style="edgeStyle=orthogonalEdgeStyle;rounded=0;orthogonalLoop=1;jettySize=auto;html=1;exitX=1;exitY=0.5;exitDx=0;exitDy=0;entryX=0;entryY=0.5;entryDx=0;entryDy=0;" parent="1" source="2NwLGLV-bCFOCfCnMblr-3" target="2NwLGLV-bCFOCfCnMblr-13" edge="1">
          <mxGeometry relative="1" as="geometry" />
        </mxCell>
        <mxCell id="T7WDUp6mdDWkj8Ut7TM1-8" value="word" style="edgeLabel;html=1;align=center;verticalAlign=middle;resizable=0;points=[];" parent="2NwLGLV-bCFOCfCnMblr-33" vertex="1" connectable="0">
          <mxGeometry x="-0.4886" y="-6" relative="1" as="geometry">
            <mxPoint x="29" y="4" as="offset" />
          </mxGeometry>
        </mxCell>
        <mxCell id="H-Z6jA3pW8PZsGEh_Skr-36" style="edgeStyle=orthogonalEdgeStyle;rounded=0;orthogonalLoop=1;jettySize=auto;html=1;exitX=0.75;exitY=0;exitDx=0;exitDy=0;entryX=1;entryY=0.5;entryDx=0;entryDy=0;" parent="1" source="2NwLGLV-bCFOCfCnMblr-3" target="2NwLGLV-bCFOCfCnMblr-1" edge="1">
          <mxGeometry relative="1" as="geometry" />
        </mxCell>
        <mxCell id="H-Z6jA3pW8PZsGEh_Skr-37" value="check Miss hit" style="edgeLabel;html=1;align=center;verticalAlign=middle;resizable=0;points=[];rotation=-90;" parent="H-Z6jA3pW8PZsGEh_Skr-36" vertex="1" connectable="0">
          <mxGeometry x="-0.3926" relative="1" as="geometry">
            <mxPoint x="11" y="-1" as="offset" />
          </mxGeometry>
        </mxCell>
        <mxCell id="2NwLGLV-bCFOCfCnMblr-3" value="&lt;font style=&quot;font-size: 18px;&quot;&gt;Cache Memory&lt;/font&gt;" style="rounded=0;whiteSpace=wrap;html=1;points=[[0,0,0,0,0],[0,0.06,0,0,0],[0,0.13,0,0,0],[0,0.19,0,0,0],[0,0.25,0,0,0],[0,0.31,0,0,0],[0,0.38,0,0,0],[0,0.44,0,0,0],[0,0.5,0,0,0],[0,0.56,0,0,0],[0,0.63,0,0,0],[0,0.69,0,0,0],[0,0.75,0,0,0],[0,0.81,0,0,0],[0,0.88,0,0,0],[0,0.94,0,0,0],[0,1,0,0,0],[0.08,0,0,0,0],[0.17,0,0,0,0],[0.25,0,0,0,0],[0.25,1,0,0,0],[0.33,0,0,0,0],[0.42,0,0,0,0],[0.5,0,0,0,0],[0.5,1,0,0,0],[0.58,0,0,0,0],[0.67,0,0,0,0],[0.75,0,0,0,0],[0.75,1,0,0,0],[0.83,0,0,0,0],[0.92,0,0,0,0],[1,0,0,0,0],[1,0.25,0,0,0],[1,0.5,0,0,0],[1,0.75,0,0,0],[1,1,0,0,0]];" parent="1" vertex="1">
          <mxGeometry x="550" y="594" width="195" height="146" as="geometry" />
        </mxCell>
        <mxCell id="H-Z6jA3pW8PZsGEh_Skr-55" style="edgeStyle=orthogonalEdgeStyle;rounded=0;orthogonalLoop=1;jettySize=auto;html=1;entryX=0;entryY=0.44;entryDx=0;entryDy=0;entryPerimeter=0;fillColor=#f8cecc;strokeColor=#CC0000;" parent="1" source="2NwLGLV-bCFOCfCnMblr-6" target="2NwLGLV-bCFOCfCnMblr-3" edge="1">
          <mxGeometry relative="1" as="geometry" />
        </mxCell>
        <mxCell id="H-Z6jA3pW8PZsGEh_Skr-61" style="edgeStyle=orthogonalEdgeStyle;rounded=0;orthogonalLoop=1;jettySize=auto;html=1;exitX=1;exitY=0.5;exitDx=0;exitDy=0;entryX=0;entryY=0.25;entryDx=0;entryDy=0;entryPerimeter=0;fillColor=#f8cecc;strokeColor=#CC0000;" parent="1" source="2NwLGLV-bCFOCfCnMblr-6" target="2NwLGLV-bCFOCfCnMblr-2" edge="1">
          <mxGeometry relative="1" as="geometry" />
        </mxCell>
        <mxCell id="H-Z6jA3pW8PZsGEh_Skr-78" value="[9:0]" style="edgeLabel;html=1;align=center;verticalAlign=middle;resizable=0;points=[];" parent="H-Z6jA3pW8PZsGEh_Skr-61" vertex="1" connectable="0">
          <mxGeometry x="-0.8906" y="-6" relative="1" as="geometry">
            <mxPoint y="2" as="offset" />
          </mxGeometry>
        </mxCell>
        <mxCell id="2NwLGLV-bCFOCfCnMblr-6" value="&lt;font style=&quot;font-size: 18px;&quot;&gt;Word&amp;nbsp;&lt;br&gt;address&lt;/font&gt;" style="triangle;whiteSpace=wrap;html=1;align=left;" parent="1" vertex="1">
          <mxGeometry x="-653" y="619" width="110" height="80" as="geometry" />
        </mxCell>
        <mxCell id="H-Z6jA3pW8PZsGEh_Skr-41" style="edgeStyle=orthogonalEdgeStyle;rounded=0;orthogonalLoop=1;jettySize=auto;html=1;exitX=1;exitY=0.5;exitDx=0;exitDy=0;entryX=0;entryY=0.75;entryDx=0;entryDy=0;" parent="1" source="2NwLGLV-bCFOCfCnMblr-8" target="2NwLGLV-bCFOCfCnMblr-1" edge="1">
          <mxGeometry relative="1" as="geometry">
            <Array as="points">
              <mxPoint x="-160" y="554" />
              <mxPoint x="-160" y="282" />
            </Array>
          </mxGeometry>
        </mxCell>
        <mxCell id="2NwLGLV-bCFOCfCnMblr-8" value="&lt;font style=&quot;font-size: 18px;&quot;&gt;Mem&amp;nbsp;&lt;br&gt;Read&lt;/font&gt;" style="triangle;whiteSpace=wrap;html=1;align=left;" parent="1" vertex="1">
          <mxGeometry x="-653" y="514" width="110" height="80" as="geometry" />
        </mxCell>
        <mxCell id="2NwLGLV-bCFOCfCnMblr-14" style="edgeStyle=orthogonalEdgeStyle;rounded=0;orthogonalLoop=1;jettySize=auto;html=1;exitX=1;exitY=0.5;exitDx=0;exitDy=0;entryX=0;entryY=0.25;entryDx=0;entryDy=0;" parent="1" source="2NwLGLV-bCFOCfCnMblr-9" target="2NwLGLV-bCFOCfCnMblr-1" edge="1">
          <mxGeometry relative="1" as="geometry" />
        </mxCell>
        <mxCell id="2NwLGLV-bCFOCfCnMblr-9" value="&lt;div style=&quot;&quot;&gt;&lt;span style=&quot;background-color: initial;&quot;&gt;&lt;font style=&quot;font-size: 18px;&quot;&gt;Mem&lt;/font&gt;&lt;/span&gt;&lt;/div&gt;&lt;div style=&quot;&quot;&gt;&lt;span style=&quot;background-color: initial;&quot;&gt;&lt;font size=&quot;3&quot;&gt;Write&lt;/font&gt;&lt;/span&gt;&lt;/div&gt;" style="triangle;whiteSpace=wrap;html=1;align=left;" parent="1" vertex="1">
          <mxGeometry x="-653" y="424" width="110" height="80" as="geometry" />
        </mxCell>
        <mxCell id="H-Z6jA3pW8PZsGEh_Skr-58" style="edgeStyle=orthogonalEdgeStyle;rounded=0;orthogonalLoop=1;jettySize=auto;html=1;entryX=0;entryY=0.75;entryDx=0;entryDy=0;entryPerimeter=0;fillColor=#dae8fc;strokeColor=#0000CC;" parent="1" source="2NwLGLV-bCFOCfCnMblr-11" target="2NwLGLV-bCFOCfCnMblr-3" edge="1">
          <mxGeometry relative="1" as="geometry">
            <Array as="points">
              <mxPoint x="-400" y="764" />
              <mxPoint x="-400" y="704" />
            </Array>
          </mxGeometry>
        </mxCell>
        <mxCell id="H-Z6jA3pW8PZsGEh_Skr-62" style="edgeStyle=orthogonalEdgeStyle;rounded=0;orthogonalLoop=1;jettySize=auto;html=1;entryX=0;entryY=0.81;entryDx=0;entryDy=0;entryPerimeter=0;fillColor=#dae8fc;strokeColor=#0000CC;" parent="1" source="2NwLGLV-bCFOCfCnMblr-11" target="2NwLGLV-bCFOCfCnMblr-2" edge="1">
          <mxGeometry relative="1" as="geometry">
            <Array as="points">
              <mxPoint x="-400" y="764" />
              <mxPoint x="-400" y="936" />
            </Array>
          </mxGeometry>
        </mxCell>
        <mxCell id="H-Z6jA3pW8PZsGEh_Skr-77" value="word" style="edgeLabel;html=1;align=center;verticalAlign=middle;resizable=0;points=[];" parent="H-Z6jA3pW8PZsGEh_Skr-62" vertex="1" connectable="0">
          <mxGeometry x="-0.8483" y="-1" relative="1" as="geometry">
            <mxPoint y="9" as="offset" />
          </mxGeometry>
        </mxCell>
        <mxCell id="2NwLGLV-bCFOCfCnMblr-11" value="&lt;font style=&quot;font-size: 18px;&quot;&gt;Data&amp;nbsp;&lt;br&gt;In&lt;/font&gt;" style="triangle;whiteSpace=wrap;html=1;align=left;" parent="1" vertex="1">
          <mxGeometry x="-653" y="724" width="110" height="80" as="geometry" />
        </mxCell>
        <mxCell id="2NwLGLV-bCFOCfCnMblr-12" value="&lt;font style=&quot;font-size: 18px;&quot;&gt;Stall&lt;/font&gt;" style="triangle;whiteSpace=wrap;html=1;align=left;" parent="1" vertex="1">
          <mxGeometry x="879" y="464" width="110" height="80" as="geometry" />
        </mxCell>
        <mxCell id="2NwLGLV-bCFOCfCnMblr-13" value="&lt;font style=&quot;font-size: 18px;&quot;&gt;DataOut&lt;/font&gt;" style="triangle;whiteSpace=wrap;html=1;align=left;" parent="1" vertex="1">
          <mxGeometry x="879" y="627" width="110" height="80" as="geometry" />
        </mxCell>
        <mxCell id="T7WDUp6mdDWkj8Ut7TM1-23" style="edgeStyle=orthogonalEdgeStyle;rounded=0;orthogonalLoop=1;jettySize=auto;html=1;exitX=0;exitY=1;exitDx=0;exitDy=0;entryX=0.5;entryY=0;entryDx=0;entryDy=0;curved=1;" parent="1" source="T7WDUp6mdDWkj8Ut7TM1-10" target="T7WDUp6mdDWkj8Ut7TM1-22" edge="1">
          <mxGeometry relative="1" as="geometry">
            <Array as="points">
              <mxPoint x="214" y="-860" />
              <mxPoint x="-82" y="-860" />
            </Array>
          </mxGeometry>
        </mxCell>
        <mxCell id="T7WDUp6mdDWkj8Ut7TM1-25" value="&lt;b style=&quot;border-color: var(--border-color); font-size: 18px;&quot;&gt;{ MEMwrite , MEMread,Check_Miss_hit } =010&amp;nbsp;&lt;/b&gt;" style="edgeLabel;html=1;align=center;verticalAlign=middle;resizable=0;points=[];" parent="T7WDUp6mdDWkj8Ut7TM1-23" vertex="1" connectable="0">
          <mxGeometry x="-0.2193" y="-4" relative="1" as="geometry">
            <mxPoint x="-121" y="-16" as="offset" />
          </mxGeometry>
        </mxCell>
        <mxCell id="wWofYQ27dp7L5zLPQfvd-6" value="&lt;font style=&quot;font-size: 18px;&quot; color=&quot;#cc0000&quot;&gt;&lt;font style=&quot;font-size: 18px;&quot;&gt;stall&lt;span style=&quot;border-color: var(--border-color);&quot;&gt;&lt;span style=&quot;&quot;&gt;&amp;nbsp;&lt;span style=&quot;white-space: pre;&quot;&gt;&#x9;&lt;span style=&quot;white-space: pre;&quot;&gt;&#x9;&lt;/span&gt;&lt;/span&gt;&amp;nbsp;&lt;/span&gt;&lt;/span&gt;&lt;span style=&quot;border-color: var(--border-color);&quot;&gt;&lt;span style=&quot;&quot;&gt;&amp;nbsp;&amp;nbsp;&amp;nbsp;&amp;nbsp;&lt;/span&gt;&lt;/span&gt;&lt;span style=&quot;border-color: var(--border-color);&quot;&gt;&lt;span style=&quot;&quot;&gt;&amp;nbsp;&amp;nbsp;&amp;nbsp;&amp;nbsp;&lt;/span&gt;&lt;/span&gt;&amp;nbsp; =1&lt;br&gt;&lt;/font&gt;Move from mem =1&lt;/font&gt;" style="edgeLabel;html=1;align=center;verticalAlign=middle;resizable=0;points=[];" vertex="1" connectable="0" parent="T7WDUp6mdDWkj8Ut7TM1-23">
          <mxGeometry x="-0.0251" y="3" relative="1" as="geometry">
            <mxPoint x="16" y="27" as="offset" />
          </mxGeometry>
        </mxCell>
        <mxCell id="T7WDUp6mdDWkj8Ut7TM1-24" style="edgeStyle=orthogonalEdgeStyle;rounded=0;orthogonalLoop=1;jettySize=auto;html=1;exitX=1;exitY=1;exitDx=0;exitDy=0;curved=1;" parent="1" source="T7WDUp6mdDWkj8Ut7TM1-10" target="T7WDUp6mdDWkj8Ut7TM1-18" edge="1">
          <mxGeometry relative="1" as="geometry">
            <Array as="points">
              <mxPoint x="342" y="-900" />
              <mxPoint x="698" y="-900" />
            </Array>
          </mxGeometry>
        </mxCell>
        <mxCell id="T7WDUp6mdDWkj8Ut7TM1-26" value="&lt;b style=&quot;border-color: var(--border-color); font-size: 18px;&quot;&gt;{ MEMwrite , MEMread,Check_Miss_hit } =100,101,110,111&amp;nbsp;&lt;/b&gt;" style="edgeLabel;html=1;align=center;verticalAlign=middle;resizable=0;points=[];" parent="T7WDUp6mdDWkj8Ut7TM1-24" vertex="1" connectable="0">
          <mxGeometry x="-0.7391" y="2" relative="1" as="geometry">
            <mxPoint x="272" y="-18" as="offset" />
          </mxGeometry>
        </mxCell>
        <mxCell id="wWofYQ27dp7L5zLPQfvd-7" value="&lt;font style=&quot;border-color: var(--border-color); color: rgb(204, 0, 0); font-size: 18px;&quot;&gt;stall&lt;span style=&quot;border-color: var(--border-color);&quot;&gt;&lt;/span&gt;&lt;span style=&quot;border-color: var(--border-color);&quot;&gt;&lt;span style=&quot;border-color: var(--border-color);&quot;&gt;&amp;nbsp;&amp;nbsp;&amp;nbsp;&amp;nbsp;&lt;/span&gt;&lt;/span&gt;&lt;span style=&quot;border-color: var(--border-color);&quot;&gt;&lt;span style=&quot;border-color: var(--border-color);&quot;&gt;&amp;nbsp;&amp;nbsp;&amp;nbsp;&amp;nbsp;&lt;/span&gt;&lt;/span&gt;&amp;nbsp; =1&lt;br style=&quot;border-color: var(--border-color);&quot;&gt;&lt;/font&gt;" style="edgeLabel;html=1;align=center;verticalAlign=middle;resizable=0;points=[];" vertex="1" connectable="0" parent="T7WDUp6mdDWkj8Ut7TM1-24">
          <mxGeometry x="-0.2952" y="-1" relative="1" as="geometry">
            <mxPoint x="9" y="13" as="offset" />
          </mxGeometry>
        </mxCell>
        <mxCell id="T7WDUp6mdDWkj8Ut7TM1-10" value="&lt;font style=&quot;font-size: 24px;&quot;&gt;IDLE&lt;/font&gt;" style="ellipse;whiteSpace=wrap;html=1;aspect=fixed;" parent="1" vertex="1">
          <mxGeometry x="210" y="-1040" width="180" height="180" as="geometry" />
        </mxCell>
        <mxCell id="H-Z6jA3pW8PZsGEh_Skr-22" style="edgeStyle=orthogonalEdgeStyle;rounded=0;orthogonalLoop=1;jettySize=auto;html=1;exitX=0;exitY=0.5;exitDx=0;exitDy=0;entryX=0;entryY=0.5;entryDx=0;entryDy=0;curved=1;" parent="1" source="T7WDUp6mdDWkj8Ut7TM1-18" target="H-Z6jA3pW8PZsGEh_Skr-21" edge="1">
          <mxGeometry relative="1" as="geometry">
            <Array as="points">
              <mxPoint x="658" y="-700" />
              <mxPoint x="558" y="-700" />
              <mxPoint x="558" y="-320" />
            </Array>
          </mxGeometry>
        </mxCell>
        <mxCell id="H-Z6jA3pW8PZsGEh_Skr-26" value="&lt;b style=&quot;border-color: var(--border-color); font-size: 18px;&quot;&gt;Check_Miss_hit=1&lt;/b&gt;" style="edgeLabel;html=1;align=center;verticalAlign=middle;resizable=0;points=[];rotation=-85;" parent="H-Z6jA3pW8PZsGEh_Skr-22" vertex="1" connectable="0">
          <mxGeometry x="-0.6611" y="11" relative="1" as="geometry">
            <mxPoint x="-31" y="80" as="offset" />
          </mxGeometry>
        </mxCell>
        <mxCell id="H-Z6jA3pW8PZsGEh_Skr-27" value="&lt;font style=&quot;border-color: var(--border-color); font-size: 18px;&quot; color=&quot;#ff0000&quot;&gt;write in cache&amp;nbsp; &amp;nbsp;=1&lt;br&gt;&lt;/font&gt;&lt;font style=&quot;border-color: var(--border-color); font-size: 18px;&quot; color=&quot;#ff3333&quot;&gt;write in mem&amp;nbsp; &amp;nbsp; &amp;nbsp;=1&lt;br style=&quot;border-color: var(--border-color);&quot;&gt;stall&lt;span style=&quot;border-color: var(--border-color);&quot;&gt;&lt;/span&gt;&lt;span style=&quot;border-color: var(--border-color);&quot;&gt;&lt;span style=&quot;border-color: var(--border-color);&quot;&gt;&amp;nbsp;&amp;nbsp;&amp;nbsp;&amp;nbsp;&lt;/span&gt;&lt;/span&gt;&lt;span style=&quot;border-color: var(--border-color);&quot;&gt;&lt;span style=&quot;border-color: var(--border-color);&quot;&gt;&amp;nbsp;&amp;nbsp;&amp;nbsp;&amp;nbsp;&lt;/span&gt;&lt;/span&gt;&amp;nbsp;&amp;nbsp;&lt;span style=&quot;border-color: var(--border-color);&quot;&gt;&lt;span style=&quot;border-color: var(--border-color);&quot;&gt;&amp;nbsp;&amp;nbsp;&amp;nbsp;&amp;nbsp;&lt;/span&gt;&lt;/span&gt;&amp;nbsp; &amp;nbsp; &amp;nbsp;=1&lt;br&gt;counter enable&amp;nbsp; =1&lt;br&gt;&lt;/font&gt;" style="edgeLabel;html=1;align=center;verticalAlign=middle;resizable=0;points=[];" parent="H-Z6jA3pW8PZsGEh_Skr-22" vertex="1" connectable="0">
          <mxGeometry x="-0.3674" y="-5" relative="1" as="geometry">
            <mxPoint x="93" y="-36" as="offset" />
          </mxGeometry>
        </mxCell>
        <mxCell id="H-Z6jA3pW8PZsGEh_Skr-23" style="edgeStyle=orthogonalEdgeStyle;rounded=0;orthogonalLoop=1;jettySize=auto;html=1;exitX=1;exitY=0.5;exitDx=0;exitDy=0;entryX=1;entryY=0.5;entryDx=0;entryDy=0;curved=1;" parent="1" source="T7WDUp6mdDWkj8Ut7TM1-18" target="H-Z6jA3pW8PZsGEh_Skr-21" edge="1">
          <mxGeometry relative="1" as="geometry">
            <Array as="points">
              <mxPoint x="838" y="-700" />
              <mxPoint x="1248" y="-700" />
              <mxPoint x="1248" y="-320" />
            </Array>
          </mxGeometry>
        </mxCell>
        <mxCell id="H-Z6jA3pW8PZsGEh_Skr-28" value="&lt;font style=&quot;border-color: var(--border-color); font-size: 18px;&quot; color=&quot;#ff0000&quot;&gt;write in cache&amp;nbsp; &amp;nbsp;=0&lt;br style=&quot;border-color: var(--border-color);&quot;&gt;&lt;/font&gt;&lt;font style=&quot;border-color: var(--border-color); font-size: 18px;&quot; color=&quot;#ff3333&quot;&gt;write in mem&amp;nbsp; &amp;nbsp; &amp;nbsp;=1&lt;br style=&quot;border-color: var(--border-color);&quot;&gt;stall&lt;span style=&quot;border-color: var(--border-color);&quot;&gt;&lt;span style=&quot;border-color: var(--border-color);&quot;&gt;&amp;nbsp;&amp;nbsp;&amp;nbsp;&amp;nbsp;&lt;/span&gt;&lt;/span&gt;&lt;span style=&quot;border-color: var(--border-color);&quot;&gt;&lt;span style=&quot;border-color: var(--border-color);&quot;&gt;&amp;nbsp;&amp;nbsp;&amp;nbsp;&amp;nbsp;&lt;/span&gt;&lt;/span&gt;&amp;nbsp;&amp;nbsp;&lt;span style=&quot;border-color: var(--border-color);&quot;&gt;&lt;span style=&quot;border-color: var(--border-color);&quot;&gt;&amp;nbsp;&amp;nbsp;&amp;nbsp;&amp;nbsp;&lt;/span&gt;&lt;/span&gt;&amp;nbsp; &amp;nbsp; &amp;nbsp;=1&lt;br&gt;counter enable&amp;nbsp; =1&lt;br&gt;&lt;/font&gt;" style="edgeLabel;html=1;align=center;verticalAlign=middle;resizable=0;points=[];rotation=0;" parent="H-Z6jA3pW8PZsGEh_Skr-23" vertex="1" connectable="0">
          <mxGeometry x="-0.2202" y="-13" relative="1" as="geometry">
            <mxPoint x="-164" y="37" as="offset" />
          </mxGeometry>
        </mxCell>
        <mxCell id="H-Z6jA3pW8PZsGEh_Skr-29" value="&lt;b style=&quot;border-color: var(--border-color); font-size: 18px;&quot;&gt;Check_Miss_hit=0&lt;/b&gt;" style="edgeLabel;html=1;align=center;verticalAlign=middle;resizable=0;points=[];" parent="H-Z6jA3pW8PZsGEh_Skr-23" vertex="1" connectable="0">
          <mxGeometry x="-0.2905" y="-5" relative="1" as="geometry">
            <mxPoint x="-102" y="-25" as="offset" />
          </mxGeometry>
        </mxCell>
        <mxCell id="T7WDUp6mdDWkj8Ut7TM1-18" value="&lt;font style=&quot;font-size: 24px;&quot;&gt;WRITING&lt;br&gt;&lt;/font&gt;" style="ellipse;whiteSpace=wrap;html=1;aspect=fixed;" parent="1" vertex="1">
          <mxGeometry x="658" y="-840" width="180" height="180" as="geometry" />
        </mxCell>
        <mxCell id="H-Z6jA3pW8PZsGEh_Skr-7" style="edgeStyle=orthogonalEdgeStyle;rounded=0;orthogonalLoop=1;jettySize=auto;html=1;exitX=0;exitY=1;exitDx=0;exitDy=0;entryX=0;entryY=0.5;entryDx=0;entryDy=0;curved=1;" parent="1" source="T7WDUp6mdDWkj8Ut7TM1-21" target="T7WDUp6mdDWkj8Ut7TM1-10" edge="1">
          <mxGeometry relative="1" as="geometry">
            <mxPoint x="-458.36038969321066" y="-213.6396103067891" as="targetPoint" />
            <Array as="points">
              <mxPoint x="204" y="-360" />
              <mxPoint x="-562" y="-360" />
              <mxPoint x="-562" y="-950" />
              <mxPoint x="188" y="-950" />
            </Array>
          </mxGeometry>
        </mxCell>
        <mxCell id="H-Z6jA3pW8PZsGEh_Skr-13" value="&lt;b style=&quot;border-color: var(--border-color); font-size: 18px; background-color: rgb(251, 251, 251);&quot;&gt;counter=3&#39;b100&lt;/b&gt;" style="edgeLabel;html=1;align=center;verticalAlign=middle;resizable=0;points=[];" parent="H-Z6jA3pW8PZsGEh_Skr-7" vertex="1" connectable="0">
          <mxGeometry x="-0.3492" relative="1" as="geometry">
            <mxPoint x="295" y="20" as="offset" />
          </mxGeometry>
        </mxCell>
        <mxCell id="H-Z6jA3pW8PZsGEh_Skr-16" value="&lt;font style=&quot;border-color: var(--border-color); font-size: 18px;&quot; color=&quot;#ff0000&quot;&gt;Move from mem&amp;nbsp; &amp;nbsp;=0&lt;br style=&quot;border-color: var(--border-color);&quot;&gt;&lt;/font&gt;&lt;font style=&quot;border-color: var(--border-color); font-size: 18px;&quot; color=&quot;#ff3333&quot;&gt;Move to cache&lt;span style=&quot;white-space: pre;&quot;&gt;&amp;nbsp;&amp;nbsp;&amp;nbsp;  &amp;nbsp;&lt;/span&gt;=0&lt;br style=&quot;border-color: var(--border-color);&quot;&gt;stall&lt;span style=&quot;border-color: var(--border-color);&quot;&gt;&lt;span style=&quot;white-space: pre;&quot;&gt;&amp;nbsp;&amp;nbsp;&amp;nbsp;&amp;nbsp;&lt;/span&gt;&lt;/span&gt;&lt;span style=&quot;border-color: var(--border-color);&quot;&gt;&lt;span style=&quot;white-space: pre;&quot;&gt;&amp;nbsp;&amp;nbsp;&amp;nbsp;&amp;nbsp;&lt;/span&gt;&lt;/span&gt;&lt;span style=&quot;border-color: var(--border-color);&quot;&gt;&lt;span style=&quot;white-space: pre;&quot;&gt;&amp;nbsp;&amp;nbsp;&amp;nbsp;&amp;nbsp;&lt;/span&gt;&lt;/span&gt;&amp;nbsp; &lt;span style=&quot;white-space: pre;&quot;&gt;&#x9;&lt;/span&gt;&amp;nbsp; &amp;nbsp; &amp;nbsp;=0&lt;br style=&quot;border-color: var(--border-color);&quot;&gt;counter enable&amp;nbsp; &amp;nbsp; =0&lt;br&gt;read from cache =1&lt;br&gt;&lt;/font&gt;" style="edgeLabel;html=1;align=center;verticalAlign=middle;resizable=0;points=[];" parent="H-Z6jA3pW8PZsGEh_Skr-7" vertex="1" connectable="0">
          <mxGeometry x="0.0551" y="-4" relative="1" as="geometry">
            <mxPoint x="416" y="263" as="offset" />
          </mxGeometry>
        </mxCell>
        <mxCell id="H-Z6jA3pW8PZsGEh_Skr-9" style="edgeStyle=orthogonalEdgeStyle;rounded=0;orthogonalLoop=1;jettySize=auto;html=1;exitX=1;exitY=1;exitDx=0;exitDy=0;entryX=1;entryY=0.5;entryDx=0;entryDy=0;curved=1;" parent="1" source="T7WDUp6mdDWkj8Ut7TM1-21" target="T7WDUp6mdDWkj8Ut7TM1-21" edge="1">
          <mxGeometry relative="1" as="geometry">
            <mxPoint x="-522" y="-60" as="targetPoint" />
            <Array as="points">
              <mxPoint x="332" y="60" />
              <mxPoint x="538" y="60" />
              <mxPoint x="538" y="-480" />
            </Array>
          </mxGeometry>
        </mxCell>
        <mxCell id="H-Z6jA3pW8PZsGEh_Skr-15" value="&lt;span style=&quot;border-color: var(--border-color); font-size: 18px; background-color: rgb(251, 251, 251);&quot;&gt;&lt;b&gt;counter = {0,1,2}&lt;/b&gt;&lt;/span&gt;" style="edgeLabel;html=1;align=center;verticalAlign=middle;resizable=0;points=[];rotation=90;" parent="H-Z6jA3pW8PZsGEh_Skr-9" vertex="1" connectable="0">
          <mxGeometry x="0.0765" y="6" relative="1" as="geometry">
            <mxPoint x="-174" y="-297" as="offset" />
          </mxGeometry>
        </mxCell>
        <mxCell id="H-Z6jA3pW8PZsGEh_Skr-18" value="&lt;font style=&quot;border-color: var(--border-color); font-size: 18px;&quot; color=&quot;#ff0000&quot;&gt;Move from mem&amp;nbsp; &amp;nbsp;=1&lt;br style=&quot;border-color: var(--border-color);&quot;&gt;&lt;/font&gt;&lt;font style=&quot;border-color: var(--border-color); font-size: 18px;&quot; color=&quot;#ff3333&quot;&gt;Move to cache&amp;nbsp;&amp;nbsp;&amp;nbsp;  &amp;nbsp;=1&lt;br style=&quot;border-color: var(--border-color);&quot;&gt;stall&lt;span style=&quot;border-color: var(--border-color);&quot;&gt;&lt;span style=&quot;border-color: var(--border-color);&quot;&gt;&amp;nbsp;&amp;nbsp;&amp;nbsp;&amp;nbsp;&lt;/span&gt;&lt;/span&gt;&lt;span style=&quot;border-color: var(--border-color);&quot;&gt;&lt;span style=&quot;border-color: var(--border-color);&quot;&gt;&amp;nbsp;&amp;nbsp;&amp;nbsp;&amp;nbsp;&lt;/span&gt;&lt;/span&gt;&lt;span style=&quot;border-color: var(--border-color);&quot;&gt;&lt;span style=&quot;border-color: var(--border-color);&quot;&gt;&amp;nbsp;&amp;nbsp;&amp;nbsp;&amp;nbsp;&lt;/span&gt;&lt;/span&gt;&amp;nbsp;&amp;nbsp;&lt;span style=&quot;border-color: var(--border-color);&quot;&gt;&lt;span style=&quot;white-space: pre;&quot;&gt;&amp;nbsp;&amp;nbsp;&amp;nbsp;&amp;nbsp;&lt;/span&gt;&lt;/span&gt;&amp;nbsp; &amp;nbsp; &amp;nbsp;=1&lt;br style=&quot;border-color: var(--border-color);&quot;&gt;counter_enable&amp;nbsp; &amp;nbsp; =1&lt;br style=&quot;border-color: var(--border-color);&quot;&gt;read_from_cache =0&lt;/font&gt;" style="edgeLabel;html=1;align=center;verticalAlign=middle;resizable=0;points=[];rotation=0;" parent="H-Z6jA3pW8PZsGEh_Skr-9" vertex="1" connectable="0">
          <mxGeometry x="-0.2764" y="-68" relative="1" as="geometry">
            <mxPoint x="75" y="-288" as="offset" />
          </mxGeometry>
        </mxCell>
        <mxCell id="H-Z6jA3pW8PZsGEh_Skr-10" style="edgeStyle=orthogonalEdgeStyle;rounded=0;orthogonalLoop=1;jettySize=auto;html=1;exitX=0.5;exitY=1;exitDx=0;exitDy=0;entryX=0.329;entryY=1.002;entryDx=0;entryDy=0;curved=1;entryPerimeter=0;" parent="1" source="T7WDUp6mdDWkj8Ut7TM1-21" target="T7WDUp6mdDWkj8Ut7TM1-21" edge="1">
          <mxGeometry relative="1" as="geometry">
            <mxPoint x="-432" y="-150" as="targetPoint" />
            <Array as="points">
              <mxPoint x="268" />
              <mxPoint x="-12" />
              <mxPoint x="-12" y="-350" />
              <mxPoint x="237" y="-350" />
            </Array>
          </mxGeometry>
        </mxCell>
        <mxCell id="H-Z6jA3pW8PZsGEh_Skr-14" value="&lt;b style=&quot;border-color: var(--border-color); font-size: 18px; background-color: rgb(251, 251, 251);&quot;&gt;counter=3&#39;b011&lt;/b&gt;" style="edgeLabel;html=1;align=center;verticalAlign=middle;resizable=0;points=[];" parent="H-Z6jA3pW8PZsGEh_Skr-10" vertex="1" connectable="0">
          <mxGeometry x="0.1359" y="-4" relative="1" as="geometry">
            <mxPoint x="146" y="-256" as="offset" />
          </mxGeometry>
        </mxCell>
        <mxCell id="H-Z6jA3pW8PZsGEh_Skr-17" value="&lt;font style=&quot;border-color: var(--border-color); font-size: 18px;&quot; color=&quot;#ff0000&quot;&gt;Move from mem&amp;nbsp; &amp;nbsp;=0&lt;br style=&quot;border-color: var(--border-color);&quot;&gt;&lt;/font&gt;&lt;font style=&quot;border-color: var(--border-color); font-size: 18px;&quot; color=&quot;#ff3333&quot;&gt;Move to cache&amp;nbsp;&amp;nbsp;&amp;nbsp;  &amp;nbsp;=1&lt;br style=&quot;border-color: var(--border-color);&quot;&gt;stall&lt;span style=&quot;border-color: var(--border-color);&quot;&gt;&lt;span style=&quot;border-color: var(--border-color);&quot;&gt;&amp;nbsp;&amp;nbsp;&amp;nbsp;&amp;nbsp;&lt;/span&gt;&lt;/span&gt;&lt;span style=&quot;border-color: var(--border-color);&quot;&gt;&lt;span style=&quot;border-color: var(--border-color);&quot;&gt;&amp;nbsp;&amp;nbsp;&amp;nbsp;&amp;nbsp;&lt;/span&gt;&lt;/span&gt;&lt;span style=&quot;border-color: var(--border-color);&quot;&gt;&lt;span style=&quot;border-color: var(--border-color);&quot;&gt;&amp;nbsp;&amp;nbsp;&amp;nbsp;&amp;nbsp;&lt;/span&gt;&lt;/span&gt;&amp;nbsp;&amp;nbsp;&lt;span style=&quot;border-color: var(--border-color);&quot;&gt;&lt;span style=&quot;white-space: pre;&quot;&gt;&amp;nbsp;&amp;nbsp;&amp;nbsp;&amp;nbsp;&lt;/span&gt;&lt;/span&gt;&amp;nbsp; &amp;nbsp; &amp;nbsp;=1&lt;br style=&quot;border-color: var(--border-color);&quot;&gt;counter_enable&amp;nbsp; &amp;nbsp; =1&lt;br style=&quot;border-color: var(--border-color);&quot;&gt;read_from_cache =0&lt;/font&gt;" style="edgeLabel;html=1;align=center;verticalAlign=middle;resizable=0;points=[];" parent="H-Z6jA3pW8PZsGEh_Skr-10" vertex="1" connectable="0">
          <mxGeometry x="-0.2819" y="-14" relative="1" as="geometry">
            <mxPoint x="-50" y="-226" as="offset" />
          </mxGeometry>
        </mxCell>
        <mxCell id="T7WDUp6mdDWkj8Ut7TM1-21" value="&lt;font style=&quot;font-size: 24px;&quot;&gt;MOVE TO CACHE&lt;br&gt;&lt;/font&gt;" style="ellipse;whiteSpace=wrap;html=1;aspect=fixed;" parent="1" vertex="1">
          <mxGeometry x="178" y="-570" width="180" height="180" as="geometry" />
        </mxCell>
        <mxCell id="T7WDUp6mdDWkj8Ut7TM1-28" style="edgeStyle=orthogonalEdgeStyle;rounded=0;orthogonalLoop=1;jettySize=auto;html=1;exitX=1;exitY=1;exitDx=0;exitDy=0;curved=1;" parent="1" source="T7WDUp6mdDWkj8Ut7TM1-22" target="T7WDUp6mdDWkj8Ut7TM1-21" edge="1">
          <mxGeometry relative="1" as="geometry">
            <Array as="points">
              <mxPoint x="-18" y="-640" />
              <mxPoint x="238" y="-640" />
            </Array>
          </mxGeometry>
        </mxCell>
        <mxCell id="T7WDUp6mdDWkj8Ut7TM1-30" value="&lt;font color=&quot;#ff0000&quot; style=&quot;font-size: 18px;&quot;&gt;Move from mem =1&lt;br&gt;&lt;/font&gt;&lt;font color=&quot;#ff3333&quot; style=&quot;font-size: 18px;&quot;&gt;Move to cache&lt;span style=&quot;white-space: pre;&quot;&gt;&#x9;&lt;/span&gt;&amp;nbsp;&amp;nbsp;=1&lt;br&gt;stall&lt;span style=&quot;white-space: pre;&quot;&gt;&#x9;&lt;/span&gt;&lt;span style=&quot;white-space: pre;&quot;&gt;&#x9;&lt;/span&gt;&lt;span style=&quot;white-space: pre;&quot;&gt;&#x9;&lt;/span&gt;&amp;nbsp; =1&lt;br&gt;counter_enable =1&lt;/font&gt;" style="edgeLabel;html=1;align=center;verticalAlign=middle;resizable=0;points=[];rotation=0;" parent="T7WDUp6mdDWkj8Ut7TM1-28" vertex="1" connectable="0">
          <mxGeometry x="-0.5174" y="5" relative="1" as="geometry">
            <mxPoint x="10" y="65" as="offset" />
          </mxGeometry>
        </mxCell>
        <mxCell id="T7WDUp6mdDWkj8Ut7TM1-22" value="&lt;font style=&quot;font-size: 24px;&quot;&gt;READING&lt;/font&gt;" style="ellipse;whiteSpace=wrap;html=1;aspect=fixed;" parent="1" vertex="1">
          <mxGeometry x="-300" y="-811" width="180" height="180" as="geometry" />
        </mxCell>
        <mxCell id="H-Z6jA3pW8PZsGEh_Skr-2" style="edgeStyle=orthogonalEdgeStyle;rounded=0;orthogonalLoop=1;jettySize=auto;html=1;exitX=1;exitY=0;exitDx=0;exitDy=0;entryX=0;entryY=0;entryDx=0;entryDy=0;elbow=vertical;curved=1;" parent="1" source="T7WDUp6mdDWkj8Ut7TM1-10" target="T7WDUp6mdDWkj8Ut7TM1-10" edge="1">
          <mxGeometry relative="1" as="geometry">
            <Array as="points">
              <mxPoint x="342" y="-1180" />
              <mxPoint x="214" y="-1180" />
            </Array>
          </mxGeometry>
        </mxCell>
        <mxCell id="H-Z6jA3pW8PZsGEh_Skr-3" value="&lt;b style=&quot;border-color: var(--border-color); font-size: 18px;&quot;&gt;{ MEMwrite , MEMread,Check_Miss_hit } =011&lt;/b&gt;" style="edgeLabel;html=1;align=center;verticalAlign=middle;resizable=0;points=[];" parent="H-Z6jA3pW8PZsGEh_Skr-2" vertex="1" connectable="0">
          <mxGeometry x="-0.0424" y="1" relative="1" as="geometry">
            <mxPoint x="-267" y="69" as="offset" />
          </mxGeometry>
        </mxCell>
        <mxCell id="wWofYQ27dp7L5zLPQfvd-5" value="&lt;font color=&quot;#cc0000&quot; style=&quot;font-size: 18px;&quot;&gt;Read From Cache =1&lt;/font&gt;" style="edgeLabel;html=1;align=center;verticalAlign=middle;resizable=0;points=[];" vertex="1" connectable="0" parent="H-Z6jA3pW8PZsGEh_Skr-2">
          <mxGeometry x="0.4346" y="20" relative="1" as="geometry">
            <mxPoint x="-114" y="68" as="offset" />
          </mxGeometry>
        </mxCell>
        <mxCell id="wWofYQ27dp7L5zLPQfvd-8" value="&lt;b style=&quot;border-color: var(--border-color); font-size: 18px;&quot;&gt;{ MEMwrite , MEMread,Check_Miss_hit } =000,001&lt;/b&gt;" style="edgeLabel;html=1;align=center;verticalAlign=middle;resizable=0;points=[];" vertex="1" connectable="0" parent="H-Z6jA3pW8PZsGEh_Skr-2">
          <mxGeometry x="-0.477" y="18" relative="1" as="geometry">
            <mxPoint x="154" y="-66" as="offset" />
          </mxGeometry>
        </mxCell>
        <mxCell id="wWofYQ27dp7L5zLPQfvd-9" value="&lt;font color=&quot;#cc0000&quot; style=&quot;font-size: 18px;&quot;&gt;Read From Cache =1&lt;/font&gt;" style="edgeLabel;html=1;align=center;verticalAlign=middle;resizable=0;points=[];" vertex="1" connectable="0" parent="H-Z6jA3pW8PZsGEh_Skr-2">
          <mxGeometry x="-0.5377" y="14" relative="1" as="geometry">
            <mxPoint x="97" y="-60" as="offset" />
          </mxGeometry>
        </mxCell>
        <mxCell id="H-Z6jA3pW8PZsGEh_Skr-31" style="edgeStyle=orthogonalEdgeStyle;rounded=0;orthogonalLoop=1;jettySize=auto;html=1;exitX=1;exitY=1;exitDx=0;exitDy=0;entryX=1;entryY=0.5;entryDx=0;entryDy=0;curved=1;" parent="1" source="H-Z6jA3pW8PZsGEh_Skr-21" target="T7WDUp6mdDWkj8Ut7TM1-10" edge="1">
          <mxGeometry relative="1" as="geometry">
            <Array as="points">
              <mxPoint x="1378" y="-256" />
              <mxPoint x="1378" y="-1110" />
              <mxPoint x="450" y="-1110" />
              <mxPoint x="450" y="-950" />
            </Array>
          </mxGeometry>
        </mxCell>
        <mxCell id="H-Z6jA3pW8PZsGEh_Skr-32" value="&lt;span style=&quot;border-color: var(--border-color); font-size: 18px; background-color: rgb(251, 251, 251);&quot;&gt;&lt;b&gt;counter=3&#39;b100&lt;/b&gt;&lt;/span&gt;" style="edgeLabel;html=1;align=center;verticalAlign=middle;resizable=0;points=[];rotation=30;" parent="H-Z6jA3pW8PZsGEh_Skr-31" vertex="1" connectable="0">
          <mxGeometry x="0.1439" y="49" relative="1" as="geometry">
            <mxPoint x="2" y="-19" as="offset" />
          </mxGeometry>
        </mxCell>
        <mxCell id="H-Z6jA3pW8PZsGEh_Skr-33" value="&lt;font style=&quot;border-color: var(--border-color); font-size: 18px;&quot; color=&quot;#ff0000&quot;&gt;write in cache&amp;nbsp; &amp;nbsp;=0&lt;br style=&quot;border-color: var(--border-color);&quot;&gt;&lt;/font&gt;&lt;font style=&quot;border-color: var(--border-color); font-size: 18px;&quot; color=&quot;#ff3333&quot;&gt;write in mem&amp;nbsp; &amp;nbsp; &amp;nbsp;=0&lt;br style=&quot;border-color: var(--border-color);&quot;&gt;stall&lt;span style=&quot;border-color: var(--border-color);&quot;&gt;&lt;/span&gt;&lt;span style=&quot;border-color: var(--border-color);&quot;&gt;&lt;span style=&quot;border-color: var(--border-color);&quot;&gt;&amp;nbsp;&amp;nbsp;&amp;nbsp;&amp;nbsp;&lt;/span&gt;&lt;/span&gt;&amp;nbsp;&amp;nbsp;&lt;span style=&quot;border-color: var(--border-color);&quot;&gt;&lt;span style=&quot;border-color: var(--border-color);&quot;&gt;&amp;nbsp;&amp;nbsp;&amp;nbsp;&amp;nbsp;&lt;/span&gt;&lt;/span&gt;&amp;nbsp; &amp;nbsp; &amp;nbsp; &amp;nbsp; &amp;nbsp;=0&lt;br&gt;counter enable =0&lt;br&gt;&lt;/font&gt;" style="edgeLabel;html=1;align=center;verticalAlign=middle;resizable=0;points=[];rotation=30;" parent="H-Z6jA3pW8PZsGEh_Skr-31" vertex="1" connectable="0">
          <mxGeometry x="0.1207" y="67" relative="1" as="geometry">
            <mxPoint x="-44" y="43" as="offset" />
          </mxGeometry>
        </mxCell>
        <mxCell id="H-Z6jA3pW8PZsGEh_Skr-21" value="&lt;font style=&quot;font-size: 24px;&quot;&gt;STALL&lt;br&gt;&lt;/font&gt;" style="ellipse;whiteSpace=wrap;html=1;aspect=fixed;" parent="1" vertex="1">
          <mxGeometry x="998" y="-410" width="180" height="180" as="geometry" />
        </mxCell>
        <mxCell id="H-Z6jA3pW8PZsGEh_Skr-30" style="edgeStyle=orthogonalEdgeStyle;rounded=0;orthogonalLoop=1;jettySize=auto;html=1;exitX=0.5;exitY=1;exitDx=0;exitDy=0;entryX=0;entryY=1;entryDx=0;entryDy=0;curved=1;" parent="1" source="H-Z6jA3pW8PZsGEh_Skr-21" target="H-Z6jA3pW8PZsGEh_Skr-21" edge="1">
          <mxGeometry relative="1" as="geometry">
            <Array as="points">
              <mxPoint x="1098" y="-230" />
              <mxPoint x="1098" y="30" />
              <mxPoint x="788" y="30" />
              <mxPoint x="788" y="-230" />
              <mxPoint x="1024" y="-230" />
            </Array>
          </mxGeometry>
        </mxCell>
        <mxCell id="H-Z6jA3pW8PZsGEh_Skr-34" value="&lt;font style=&quot;font-size: 18px;&quot;&gt;&lt;b&gt;counter = {0,1,2,3}&lt;/b&gt;&lt;/font&gt;" style="edgeLabel;html=1;align=center;verticalAlign=middle;resizable=0;points=[];rotation=-85;" parent="H-Z6jA3pW8PZsGEh_Skr-30" vertex="1" connectable="0">
          <mxGeometry x="0.6573" y="-33" relative="1" as="geometry">
            <mxPoint x="256" y="117" as="offset" />
          </mxGeometry>
        </mxCell>
        <mxCell id="H-Z6jA3pW8PZsGEh_Skr-35" value="&lt;font style=&quot;border-color: var(--border-color); font-size: 18px;&quot; color=&quot;#ff0000&quot;&gt;write in cache&amp;nbsp; &amp;nbsp;=0&lt;br style=&quot;border-color: var(--border-color);&quot;&gt;&lt;/font&gt;&lt;font style=&quot;border-color: var(--border-color); font-size: 18px;&quot; color=&quot;#ff3333&quot;&gt;write in mem&amp;nbsp; &amp;nbsp; &amp;nbsp;=1&lt;br style=&quot;border-color: var(--border-color);&quot;&gt;stall&lt;span style=&quot;border-color: var(--border-color);&quot;&gt;&lt;span style=&quot;border-color: var(--border-color);&quot;&gt;&amp;nbsp;&amp;nbsp;&amp;nbsp;&amp;nbsp;&lt;/span&gt;&lt;/span&gt;&amp;nbsp;&amp;nbsp;&lt;span style=&quot;border-color: var(--border-color);&quot;&gt;&lt;span style=&quot;border-color: var(--border-color);&quot;&gt;&amp;nbsp;&amp;nbsp;&amp;nbsp;&amp;nbsp;&lt;/span&gt;&lt;/span&gt;&amp;nbsp; &amp;nbsp; &amp;nbsp; &amp;nbsp; &amp;nbsp;=1&lt;br style=&quot;border-color: var(--border-color);&quot;&gt;counter enable =1&lt;/font&gt;" style="edgeLabel;html=1;align=center;verticalAlign=middle;resizable=0;points=[];" parent="H-Z6jA3pW8PZsGEh_Skr-30" vertex="1" connectable="0">
          <mxGeometry x="-0.2507" y="-5" relative="1" as="geometry">
            <mxPoint x="54" y="-155" as="offset" />
          </mxGeometry>
        </mxCell>
        <mxCell id="H-Z6jA3pW8PZsGEh_Skr-63" value="" style="triangle;whiteSpace=wrap;html=1;rotation=90;" parent="1" vertex="1">
          <mxGeometry x="170" y="165" width="20" height="30" as="geometry" />
        </mxCell>
        <mxCell id="H-Z6jA3pW8PZsGEh_Skr-64" value="" style="triangle;whiteSpace=wrap;html=1;rotation=-90;" parent="1" vertex="1">
          <mxGeometry x="140" y="931" width="20" height="30" as="geometry" />
        </mxCell>
        <mxCell id="H-Z6jA3pW8PZsGEh_Skr-67" value="" style="triangle;whiteSpace=wrap;html=1;rotation=-90;" parent="1" vertex="1">
          <mxGeometry x="700" y="715" width="20" height="30" as="geometry" />
        </mxCell>
        <mxCell id="H-Z6jA3pW8PZsGEh_Skr-68" value="" style="endArrow=classic;html=1;rounded=0;entryX=0;entryY=0.5;entryDx=0;entryDy=0;" parent="1" target="H-Z6jA3pW8PZsGEh_Skr-67" edge="1">
          <mxGeometry width="50" height="50" relative="1" as="geometry">
            <mxPoint x="710" y="760" as="sourcePoint" />
            <mxPoint x="510" y="580" as="targetPoint" />
          </mxGeometry>
        </mxCell>
        <mxCell id="H-Z6jA3pW8PZsGEh_Skr-74" value="clk" style="edgeLabel;html=1;align=center;verticalAlign=middle;resizable=0;points=[];" parent="H-Z6jA3pW8PZsGEh_Skr-68" vertex="1" connectable="0">
          <mxGeometry x="-0.9714" y="-4" relative="1" as="geometry">
            <mxPoint x="-5" y="7" as="offset" />
          </mxGeometry>
        </mxCell>
        <mxCell id="H-Z6jA3pW8PZsGEh_Skr-69" value="" style="endArrow=classic;html=1;rounded=0;entryX=0;entryY=0.5;entryDx=0;entryDy=0;" parent="1" target="H-Z6jA3pW8PZsGEh_Skr-64" edge="1">
          <mxGeometry width="50" height="50" relative="1" as="geometry">
            <mxPoint x="150" y="980" as="sourcePoint" />
            <mxPoint x="693" y="750" as="targetPoint" />
          </mxGeometry>
        </mxCell>
        <mxCell id="H-Z6jA3pW8PZsGEh_Skr-73" value="clk" style="edgeLabel;html=1;align=center;verticalAlign=middle;resizable=0;points=[];" parent="H-Z6jA3pW8PZsGEh_Skr-69" vertex="1" connectable="0">
          <mxGeometry x="-0.5" y="1" relative="1" as="geometry">
            <mxPoint y="14" as="offset" />
          </mxGeometry>
        </mxCell>
        <mxCell id="H-Z6jA3pW8PZsGEh_Skr-70" value="" style="endArrow=classic;html=1;rounded=0;entryX=0.5;entryY=0;entryDx=0;entryDy=0;" parent="1" target="H-Z6jA3pW8PZsGEh_Skr-72" edge="1">
          <mxGeometry width="50" height="50" relative="1" as="geometry">
            <mxPoint x="180" y="127" as="sourcePoint" />
            <mxPoint x="180" y="153" as="targetPoint" />
          </mxGeometry>
        </mxCell>
        <mxCell id="H-Z6jA3pW8PZsGEh_Skr-75" value="clk" style="edgeLabel;html=1;align=center;verticalAlign=middle;resizable=0;points=[];" parent="H-Z6jA3pW8PZsGEh_Skr-70" vertex="1" connectable="0">
          <mxGeometry x="-0.1161" y="-1" relative="1" as="geometry">
            <mxPoint x="8" y="-22" as="offset" />
          </mxGeometry>
        </mxCell>
        <mxCell id="H-Z6jA3pW8PZsGEh_Skr-72" value="" style="ellipse;whiteSpace=wrap;html=1;aspect=fixed;" parent="1" vertex="1">
          <mxGeometry x="175" y="159" width="10" height="10" as="geometry" />
        </mxCell>
      </root>
    </mxGraphModel>
  </diagram>
</mxfile>
